<?xml version="1.0" encoding="UTF-8"?>
<!DOCTYPE svg PUBLIC "-//W3C//DTD SVG 1.1//EN" "http://www.w3.org/Graphics/SVG/1.1/DTD/svg11.dtd">
<svg xmlns="http://www.w3.org/2000/svg" version="1.1" width="1024px" height="1024px" style="shape-rendering:geometricPrecision; text-rendering:geometricPrecision; image-rendering:optimizeQuality; fill-rule:evenodd; clip-rule:evenodd" xmlns:xlink="http://www.w3.org/1999/xlink">
<g><path style="opacity:0.997" fill="#387bee" d="M 232.5,-0.5 C 236.5,-0.5 240.5,-0.5 244.5,-0.5C 163.451,81.5488 81.7847,162.882 -0.5,243.5C -0.5,239.833 -0.5,236.167 -0.5,232.5C 10.3875,142.857 54.7208,75.3573 132.5,30C 163.971,13.3053 197.304,3.1386 232.5,-0.5 Z"/></g>
<g><path style="opacity:1" fill="#3678eb" d="M 244.5,-0.5 C 281.5,-0.5 318.5,-0.5 355.5,-0.5C 237.167,118.5 118.5,237.167 -0.5,355.5C -0.5,318.167 -0.5,280.833 -0.5,243.5C 81.7847,162.882 163.451,81.5488 244.5,-0.5 Z"/></g>
<g><path style="opacity:1" fill="#3575e8" d="M 355.5,-0.5 C 376.167,-0.5 396.833,-0.5 417.5,-0.5C 278.5,139.167 139.167,278.5 -0.5,417.5C -0.5,396.833 -0.5,376.167 -0.5,355.5C 118.5,237.167 237.167,118.5 355.5,-0.5 Z"/></g>
<g><path style="opacity:1" fill="#3472e5" d="M 417.5,-0.5 C 459.167,-0.5 500.833,-0.5 542.5,-0.5C 361.833,180.833 180.833,361.833 -0.5,542.5C -0.5,500.833 -0.5,459.167 -0.5,417.5C 139.167,278.5 278.5,139.167 417.5,-0.5 Z"/></g>
<g><path style="opacity:1" fill="#326fe1" d="M 542.5,-0.5 C 568.167,-0.5 593.833,-0.5 619.5,-0.5C 521.167,98.1667 422.833,196.833 324.5,295.5C 311.917,294.252 302.75,299.252 297,310.5C 295.691,315.066 295.191,319.733 295.5,324.5C 196.833,422.833 98.1667,521.167 -0.5,619.5C -0.5,593.833 -0.5,568.167 -0.5,542.5C 180.833,361.833 361.833,180.833 542.5,-0.5 Z"/></g>
<g><path style="opacity:1" fill="#326ddf" d="M 619.5,-0.5 C 636.167,-0.5 652.833,-0.5 669.5,-0.5C 560.833,108.833 451.833,217.833 342.5,326.5C 345.019,311.203 339.019,300.87 324.5,295.5C 422.833,196.833 521.167,98.1667 619.5,-0.5 Z"/></g>
<g><path style="opacity:1" fill="#316bdd" d="M 669.5,-0.5 C 689.167,-0.5 708.833,-0.5 728.5,-0.5C 600.833,127.5 473.167,255.5 345.5,383.5C 325.833,383.5 306.167,383.5 286.5,383.5C 299.833,369.833 313.167,356.167 326.5,342.5C 334.167,339.5 339.5,334.167 342.5,326.5C 451.833,217.833 560.833,108.833 669.5,-0.5 Z"/></g>
<g><path style="opacity:1" fill="#3069db" d="M 728.5,-0.5 C 749.167,-0.5 769.833,-0.5 790.5,-0.5C 790.5,0.166667 790.833,0.5 791.5,0.5C 664.167,128.167 536.833,255.833 409.5,383.5C 388.167,383.5 366.833,383.5 345.5,383.5C 473.167,255.5 600.833,127.5 728.5,-0.5 Z"/></g>
<g><path style="opacity:0.999" fill="#2e66d7" d="M 791.5,0.5 C 832.915,3.97046 870.915,16.9705 905.5,39.5C 791.167,154.167 676.833,268.833 562.5,383.5C 511.5,383.5 460.5,383.5 409.5,383.5C 536.833,255.833 664.167,128.167 791.5,0.5 Z"/></g>
<g><path style="opacity:0.999" fill="#2c61d2" d="M 905.5,39.5 C 932.957,57.1188 956.457,79.1188 976,105.5C 977.777,108.059 979.277,110.726 980.5,113.5C 890.167,203.167 800.167,293.167 710.5,383.5C 661.167,383.5 611.833,383.5 562.5,383.5C 676.833,268.833 791.167,154.167 905.5,39.5 Z"/></g>
<g><path style="opacity:1" fill="#2b5ecf" d="M 980.5,113.5 C 987.759,123.006 993.759,133.34 998.5,144.5C 997.542,144.047 996.708,143.381 996,142.5C 914.299,224.035 832.799,305.701 751.5,387.5C 748.647,386.047 745.647,384.881 742.5,384C 731.839,383.5 721.172,383.333 710.5,383.5C 800.167,293.167 890.167,203.167 980.5,113.5 Z"/></g>
<g><path style="opacity:0.999" fill="#295acb" d="M 998.5,144.5 C 1012.11,172.343 1020.45,201.677 1023.5,232.5C 1023.5,253.167 1023.5,273.833 1023.5,294.5C 938.167,379.5 852.833,464.5 767.5,549.5C 767.5,511.5 767.5,473.5 767.5,435.5C 767.666,426.494 767.5,417.494 767,408.5C 764.737,399.288 759.57,392.288 751.5,387.5C 832.799,305.701 914.299,224.035 996,142.5C 996.708,143.381 997.542,144.047 998.5,144.5 Z"/></g>
<g><path style="opacity:1" fill="#d4e0f8" d="M 324.5,295.5 C 339.019,300.87 345.019,311.203 342.5,326.5C 339.5,334.167 334.167,339.5 326.5,342.5C 311.203,345.019 300.87,339.019 295.5,324.5C 295.191,319.733 295.691,315.066 297,310.5C 302.75,299.252 311.917,294.252 324.5,295.5 Z"/></g>
<g><path style="opacity:1" fill="#d3ddf5" d="M 697.5,295.5 C 712.128,293.727 721.961,299.727 727,313.5C 728.761,327.808 722.928,337.642 709.5,343C 695.192,344.761 685.358,338.928 680,325.5C 677.836,314.991 681.002,306.491 689.5,300C 692.099,298.205 694.766,296.705 697.5,295.5 Z"/></g>
<g><path style="opacity:1" fill="#2754c4" d="M 1023.5,294.5 C 1023.5,356.5 1023.5,418.5 1023.5,480.5C 924.167,579.5 824.833,678.5 725.5,777.5C 730.534,761.4 725.2,750.233 709.5,744C 695.192,742.239 685.358,748.072 680,761.5C 678.251,778.748 685.917,788.748 703,791.5C 706.652,791.519 710.152,790.852 713.5,789.5C 635.833,867.5 558.167,945.5 480.5,1023.5C 426.167,1023.5 371.833,1023.5 317.5,1023.5C 423.833,916.833 530.167,810.167 636.5,703.5C 671.835,703.667 707.168,703.5 742.5,703C 755.333,699.5 763.5,691.333 767,678.5C 767.5,635.501 767.667,592.501 767.5,549.5C 852.833,464.5 938.167,379.5 1023.5,294.5 Z"/></g>
<g><path style="opacity:1" fill="#326ddf" d="M 295.5,324.5 C 300.87,339.019 311.203,345.019 326.5,342.5C 313.167,356.167 299.833,369.833 286.5,383.5C 267.833,385.5 257.5,395.833 255.5,414.5C 170.167,499.5 84.8333,584.5 -0.5,669.5C -0.5,652.833 -0.5,636.167 -0.5,619.5C 98.1667,521.167 196.833,422.833 295.5,324.5 Z"/></g>
<g><path style="opacity:1" fill="#f8fafd" d="M 286.5,383.5 C 306.167,383.5 325.833,383.5 345.5,383.5C 366.833,383.5 388.167,383.5 409.5,383.5C 460.5,383.5 511.5,383.5 562.5,383.5C 611.833,383.5 661.167,383.5 710.5,383.5C 721.172,383.333 731.839,383.5 742.5,384C 745.647,384.881 748.647,386.047 751.5,387.5C 759.57,392.288 764.737,399.288 767,408.5C 767.5,417.494 767.666,426.494 767.5,435.5C 764.678,451.154 755.345,460.321 739.5,463C 586.5,463.667 433.5,463.667 280.5,463C 266.798,459.134 258.465,450.301 255.5,436.5C 255.5,429.167 255.5,421.833 255.5,414.5C 257.5,395.833 267.833,385.5 286.5,383.5 Z"/></g>
<g><path style="opacity:1" fill="#316bdd" d="M 255.5,414.5 C 255.5,421.833 255.5,429.167 255.5,436.5C 255.5,448.833 255.5,461.167 255.5,473.5C 170.167,558.5 84.8333,643.5 -0.5,728.5C -0.5,708.833 -0.5,689.167 -0.5,669.5C 84.8333,584.5 170.167,499.5 255.5,414.5 Z"/></g>
<g><path style="opacity:1" fill="#eaeffa" d="M 767.5,435.5 C 767.5,473.5 767.5,511.5 767.5,549.5C 767.667,592.501 767.5,635.501 767,678.5C 763.5,691.333 755.333,699.5 742.5,703C 707.168,703.5 671.835,703.667 636.5,703.5C 628.833,703.5 621.167,703.5 613.5,703.5C 553.833,703.5 494.167,703.5 434.5,703.5C 419.5,703.5 404.5,703.5 389.5,703.5C 353.165,703.667 316.832,703.5 280.5,703C 271.598,700.246 264.598,695.079 259.5,687.5C 258.438,684.484 257.271,681.484 256,678.5C 255.5,631.501 255.333,584.501 255.5,537.5C 255.5,516.167 255.5,494.833 255.5,473.5C 255.5,461.167 255.5,448.833 255.5,436.5C 258.465,450.301 266.798,459.134 280.5,463C 433.5,463.667 586.5,463.667 739.5,463C 755.345,460.321 764.678,451.154 767.5,435.5 Z"/></g>
<g><path style="opacity:1" fill="#3069db" d="M 255.5,473.5 C 255.5,494.833 255.5,516.167 255.5,537.5C 170.5,622.167 85.5,706.833 0.5,791.5C 0.5,790.833 0.166667,790.5 -0.5,790.5C -0.5,769.833 -0.5,749.167 -0.5,728.5C 84.8333,643.5 170.167,558.5 255.5,473.5 Z"/></g>
<g><path style="opacity:1" fill="#2651c1" d="M 1023.5,480.5 C 1023.5,485.167 1023.5,489.833 1023.5,494.5C 846.833,670.5 670.5,846.833 494.5,1023.5C 489.833,1023.5 485.167,1023.5 480.5,1023.5C 558.167,945.5 635.833,867.5 713.5,789.5C 718.5,786.5 722.5,782.5 725.5,777.5C 824.833,678.5 924.167,579.5 1023.5,480.5 Z"/></g>
<g><path style="opacity:1" fill="#acb9e4" d="M 486.5,493.5 C 471.167,493.5 455.833,493.5 440.5,493.5C 440.5,522.167 440.5,550.833 440.5,579.5C 439.502,550.671 439.169,521.671 439.5,492.5C 455.342,492.17 471.009,492.504 486.5,493.5 Z"/></g>
<g><path style="opacity:1" fill="#2041af" d="M 486.5,493.5 C 504.08,495.248 511.913,504.915 510,522.5C 507.143,533.539 499.976,539.872 488.5,541.5C 492.442,543.938 495.942,546.938 499,550.5C 505.167,560 511.333,569.5 517.5,579C 510.5,579.667 503.5,579.667 496.5,579C 489.414,568.159 482.08,557.493 474.5,547C 469.278,544.005 463.611,542.838 457.5,543.5C 457.5,555.5 457.5,567.5 457.5,579.5C 451.833,579.5 446.167,579.5 440.5,579.5C 440.5,550.833 440.5,522.167 440.5,493.5C 455.833,493.5 471.167,493.5 486.5,493.5 Z"/></g>
<g><path style="opacity:1" fill="#244ebe" d="M 1023.5,494.5 C 1023.5,550.833 1023.5,607.167 1023.5,663.5C 903.167,783.167 783.167,903.167 663.5,1023.5C 607.167,1023.5 550.833,1023.5 494.5,1023.5C 670.5,846.833 846.833,670.5 1023.5,494.5 Z"/></g>
<g><path style="opacity:1" fill="#e7edfa" d="M 457.5,507.5 C 466.506,507.334 475.506,507.5 484.5,508C 489.785,509.237 492.452,512.57 492.5,518C 492.736,523.887 490.069,527.554 484.5,529C 475.506,529.5 466.506,529.666 457.5,529.5C 457.5,522.167 457.5,514.833 457.5,507.5 Z"/></g>
<g><path style="opacity:1" fill="#2142af" d="M 544.5,573.5 C 544.44,572.957 544.107,572.624 543.5,572.5C 542.501,582.812 542.168,593.145 542.5,603.5C 537.167,603.5 531.833,603.5 526.5,603.5C 526.5,574.833 526.5,546.167 526.5,517.5C 531.5,517.5 536.5,517.5 541.5,517.5C 541.187,520.247 541.52,522.914 542.5,525.5C 543.107,525.376 543.44,525.043 543.5,524.5C 552.76,514.303 563.426,512.803 575.5,520C 586.033,529.942 589.866,542.108 587,556.5C 583.702,574.149 573.202,582.316 555.5,581C 551.106,579.418 547.439,576.918 544.5,573.5 Z"/></g>
<g><path style="opacity:1" fill="#8094d3" d="M 541.5,517.5 C 542.167,519.833 542.833,522.167 543.5,524.5C 543.44,525.043 543.107,525.376 542.5,525.5C 541.52,522.914 541.187,520.247 541.5,517.5 Z"/></g>
<g><path style="opacity:1" fill="#e5eaf8" d="M 552.5,528.5 C 561.304,527.484 567.138,531.15 570,539.5C 571.315,547.839 570.315,555.839 567,563.5C 560.333,570.167 553.667,570.167 547,563.5C 541.469,553.998 541.135,544.331 546,534.5C 548.063,532.266 550.229,530.266 552.5,528.5 Z"/></g>
<g><path style="opacity:0.999" fill="#2e66d7" d="M 255.5,537.5 C 255.333,584.501 255.5,631.501 256,678.5C 257.271,681.484 258.438,684.484 259.5,687.5C 186.25,759.25 113.416,831.583 41,904.5C 40.5357,905.094 40.369,905.761 40.5,906.5C 17.2611,871.79 3.92778,833.457 0.5,791.5C 85.5,706.833 170.5,622.167 255.5,537.5 Z"/></g>
<g><path style="opacity:1" fill="#6c83cb" d="M 544.5,573.5 C 543.833,583.5 543.167,593.5 542.5,603.5C 542.168,593.145 542.501,582.812 543.5,572.5C 544.107,572.624 544.44,572.957 544.5,573.5 Z"/></g>
<g><path style="opacity:1" fill="#234bba" d="M 1023.5,663.5 C 1023.5,675.167 1023.5,686.833 1023.5,698.5C 914.833,806.5 806.5,914.833 698.5,1023.5C 686.833,1023.5 675.167,1023.5 663.5,1023.5C 783.167,903.167 903.167,783.167 1023.5,663.5 Z"/></g>
<g><path style="opacity:0.999" fill="#2c61d2" d="M 259.5,687.5 C 264.598,695.079 271.598,700.246 280.5,703C 316.832,703.5 353.165,703.667 389.5,703.5C 373.535,719.965 357.368,736.299 341,752.5C 340.517,753.448 340.351,754.448 340.5,755.5C 331.118,742.575 319.451,740.075 305.5,748C 295.296,756.254 292.796,766.421 298,778.5C 300.696,782.361 303.863,785.694 307.5,788.5C 306.448,788.351 305.448,788.517 304.5,789C 240.632,852.701 176.965,916.535 113.5,980.5C 87.6869,963.525 65.5202,942.525 47,917.5C 44.5794,913.929 42.4127,910.262 40.5,906.5C 40.369,905.761 40.5357,905.094 41,904.5C 113.416,831.583 186.25,759.25 259.5,687.5 Z"/></g>
<g><path style="opacity:0.999" fill="#2148b7" d="M 1023.5,698.5 C 1023.5,729.167 1023.5,759.833 1023.5,790.5C 1012.61,880.144 968.279,947.644 890.5,993C 859.029,1009.69 825.696,1019.86 790.5,1023.5C 759.833,1023.5 729.167,1023.5 698.5,1023.5C 806.5,914.833 914.833,806.5 1023.5,698.5 Z"/></g>
<g><path style="opacity:0.999" fill="#2b5ecf" d="M 389.5,703.5 C 404.5,703.5 419.5,703.5 434.5,703.5C 336.833,801.5 239.167,899.5 141.5,997.5C 131.465,992.824 122.132,987.157 113.5,980.5C 176.965,916.535 240.632,852.701 304.5,789C 305.448,788.517 306.448,788.351 307.5,788.5C 324.105,794.907 335.938,789.907 343,773.5C 344.142,767.167 343.309,761.167 340.5,755.5C 340.351,754.448 340.517,753.448 341,752.5C 357.368,736.299 373.535,719.965 389.5,703.5 Z"/></g>
<g><path style="opacity:0.999" fill="#295acb" d="M 434.5,703.5 C 494.167,703.5 553.833,703.5 613.5,703.5C 507.167,810.167 400.833,916.833 294.5,1023.5C 273.833,1023.5 253.167,1023.5 232.5,1023.5C 200.742,1020.14 170.408,1011.47 141.5,997.5C 239.167,899.5 336.833,801.5 434.5,703.5 Z"/></g>
<g><path style="opacity:1" fill="#2856c8" d="M 613.5,703.5 C 621.167,703.5 628.833,703.5 636.5,703.5C 530.167,810.167 423.833,916.833 317.5,1023.5C 309.833,1023.5 302.167,1023.5 294.5,1023.5C 400.833,916.833 507.167,810.167 613.5,703.5 Z"/></g>
<g><path style="opacity:1" fill="#d3ddf5" d="M 340.5,755.5 C 343.309,761.167 344.142,767.167 343,773.5C 335.938,789.907 324.105,794.907 307.5,788.5C 303.863,785.694 300.696,782.361 298,778.5C 292.796,766.421 295.296,756.254 305.5,748C 319.451,740.075 331.118,742.575 340.5,755.5 Z"/></g>
<g><path style="opacity:1" fill="#d2dbf2" d="M 725.5,777.5 C 722.5,782.5 718.5,786.5 713.5,789.5C 710.152,790.852 706.652,791.519 703,791.5C 685.917,788.748 678.251,778.748 680,761.5C 685.358,748.072 695.192,742.239 709.5,744C 725.2,750.233 730.534,761.4 725.5,777.5 Z"/></g>
</svg>
