<?xml version="1.0" encoding="UTF-8"?>
<svg xmlns="http://www.w3.org/2000/svg" xmlns:xlink="http://www.w3.org/1999/xlink" width="512px" height="512px" viewBox="0 0 512 512" version="1.1">
<defs>
<filter id="alpha" filterUnits="objectBoundingBox" x="0%" y="0%" width="100%" height="100%">
  <feColorMatrix type="matrix" in="SourceGraphic" values="0 0 0 0 1 0 0 0 0 1 0 0 0 0 1 0 0 0 1 0"/>
</filter>
<mask id="mask0">
  <g filter="url(#alpha)">
<rect x="0" y="0" width="512" height="512" style="fill:rgb(0%,0%,0%);fill-opacity:0.996078;stroke:none;"/>
  </g>
</mask>
<clipPath id="clip1">
  <rect x="0" y="0" width="512" height="512"/>
</clipPath>
<g id="surface5" clip-path="url(#clip1)">
<path style=" stroke:none;fill-rule:evenodd;fill:rgb(21.960784%,48.235294%,93.333334%);fill-opacity:1;" d="M 116.25 -0.25 C 118.25 -0.25 120.25 -0.25 122.25 -0.25 C 81.726562 40.773438 40.890625 81.441406 -0.25 121.75 C -0.25 119.917969 -0.25 118.082031 -0.25 116.25 C 5.195312 71.429688 27.359375 37.679688 66.25 15 C 81.984375 6.652344 98.652344 1.570312 116.25 -0.25 Z M 116.25 -0.25 "/>
</g>
</defs>
<g id="surface1">
<use xlink:href="#surface5" mask="url(#mask0)"/>
<path style=" stroke:none;fill-rule:evenodd;fill:rgb(21.176471%,47.058824%,92.156863%);fill-opacity:1;" d="M 122.25 -0.25 C 140.75 -0.25 159.25 -0.25 177.75 -0.25 C 118.582031 59.25 59.25 118.582031 -0.25 177.75 C -0.25 159.082031 -0.25 140.417969 -0.25 121.75 C 40.890625 81.441406 81.726562 40.773438 122.25 -0.25 Z M 122.25 -0.25 "/>
<path style=" stroke:none;fill-rule:evenodd;fill:rgb(20.784314%,45.882353%,90.980393%);fill-opacity:1;" d="M 177.75 -0.25 C 188.082031 -0.25 198.417969 -0.25 208.75 -0.25 C 139.25 69.582031 69.582031 139.25 -0.25 208.75 C -0.25 198.417969 -0.25 188.082031 -0.25 177.75 C 59.25 118.582031 118.582031 59.25 177.75 -0.25 Z M 177.75 -0.25 "/>
<path style=" stroke:none;fill-rule:evenodd;fill:rgb(20.392157%,44.705883%,89.803922%);fill-opacity:1;" d="M 208.75 -0.25 C 229.582031 -0.25 250.417969 -0.25 271.25 -0.25 C 180.917969 90.417969 90.417969 180.917969 -0.25 271.25 C -0.25 250.417969 -0.25 229.582031 -0.25 208.75 C 69.582031 139.25 139.25 69.582031 208.75 -0.25 Z M 208.75 -0.25 "/>
<path style=" stroke:none;fill-rule:evenodd;fill:rgb(19.607843%,43.529412%,88.235295%);fill-opacity:1;" d="M 271.25 -0.25 C 284.082031 -0.25 296.917969 -0.25 309.75 -0.25 C 260.582031 49.082031 211.417969 98.417969 162.25 147.75 C 155.957031 147.125 151.375 149.625 148.5 155.25 C 147.84375 157.53125 147.59375 159.867188 147.75 162.25 C 98.417969 211.417969 49.082031 260.582031 -0.25 309.75 C -0.25 296.917969 -0.25 284.082031 -0.25 271.25 C 90.417969 180.917969 180.917969 90.417969 271.25 -0.25 Z M 271.25 -0.25 "/>
<path style=" stroke:none;fill-rule:evenodd;fill:rgb(19.607843%,42.745098%,87.450981%);fill-opacity:1;" d="M 309.75 -0.25 C 318.082031 -0.25 326.417969 -0.25 334.75 -0.25 C 280.417969 54.417969 225.917969 108.917969 171.25 163.25 C 172.507812 155.601562 169.507812 150.433594 162.25 147.75 C 211.417969 98.417969 260.582031 49.082031 309.75 -0.25 Z M 309.75 -0.25 "/>
<path style=" stroke:none;fill-rule:evenodd;fill:rgb(19.215687%,41.960785%,86.666667%);fill-opacity:1;" d="M 334.75 -0.25 C 344.582031 -0.25 354.417969 -0.25 364.25 -0.25 C 300.417969 63.75 236.582031 127.75 172.75 191.75 C 162.917969 191.75 153.082031 191.75 143.25 191.75 C 149.917969 184.917969 156.582031 178.082031 163.25 171.25 C 167.082031 169.75 169.75 167.082031 171.25 163.25 C 225.917969 108.917969 280.417969 54.417969 334.75 -0.25 Z M 334.75 -0.25 "/>
<path style=" stroke:none;fill-rule:evenodd;fill:rgb(18.82353%,41.176471%,85.882354%);fill-opacity:1;" d="M 364.25 -0.25 C 374.582031 -0.25 384.917969 -0.25 395.25 -0.25 C 395.25 0.0820312 395.417969 0.25 395.75 0.25 C 332.082031 64.082031 268.417969 127.917969 204.75 191.75 C 194.082031 191.75 183.417969 191.75 172.75 191.75 C 236.582031 127.75 300.417969 63.75 364.25 -0.25 Z M 364.25 -0.25 "/>
<path style=" stroke:none;fill-rule:evenodd;fill:rgb(18.039216%,40.000001%,84.313726%);fill-opacity:1;" d="M 395.75 0.25 C 416.457031 1.984375 435.457031 8.484375 452.75 19.75 C 395.582031 77.082031 338.417969 134.417969 281.25 191.75 C 255.75 191.75 230.25 191.75 204.75 191.75 C 268.417969 127.917969 332.082031 64.082031 395.75 0.25 Z M 395.75 0.25 "/>
<path style=" stroke:none;fill-rule:evenodd;fill:rgb(17.254902%,38.039216%,82.352942%);fill-opacity:1;" d="M 452.75 19.75 C 466.476562 28.558594 478.226562 39.558594 488 52.75 C 488.886719 54.03125 489.636719 55.363281 490.25 56.75 C 445.082031 101.582031 400.082031 146.582031 355.25 191.75 C 330.582031 191.75 305.917969 191.75 281.25 191.75 C 338.417969 134.417969 395.582031 77.082031 452.75 19.75 Z M 452.75 19.75 "/>
<path style=" stroke:none;fill-rule:evenodd;fill:rgb(16.862746%,36.862746%,81.176472%);fill-opacity:1;" d="M 490.25 56.75 C 493.878906 61.503906 496.878906 66.671875 499.25 72.25 C 498.769531 72.023438 498.355469 71.691406 498 71.25 C 457.148438 112.015625 416.398438 152.851562 375.75 193.75 C 374.324219 193.023438 372.824219 192.441406 371.25 192 C 365.917969 191.75 360.585938 191.667969 355.25 191.75 C 400.082031 146.582031 445.082031 101.582031 490.25 56.75 Z M 490.25 56.75 "/>
<path style=" stroke:none;fill-rule:evenodd;fill:rgb(16.078432%,35.294119%,79.607844%);fill-opacity:1;" d="M 499.25 72.25 C 506.054688 86.171875 510.226562 100.839844 511.75 116.25 C 511.75 126.582031 511.75 136.917969 511.75 147.25 C 469.082031 189.75 426.417969 232.25 383.75 274.75 C 383.75 255.75 383.75 236.75 383.75 217.75 C 383.832031 213.246094 383.75 208.746094 383.5 204.25 C 382.367188 199.644531 379.785156 196.144531 375.75 193.75 C 416.398438 152.851562 457.148438 112.015625 498 71.25 C 498.355469 71.691406 498.769531 72.023438 499.25 72.25 Z M 499.25 72.25 "/>
<path style=" stroke:none;fill-rule:evenodd;fill:rgb(83.137256%,87.843138%,97.254902%);fill-opacity:1;" d="M 162.25 147.75 C 169.507812 150.433594 172.507812 155.601562 171.25 163.25 C 169.75 167.082031 167.082031 169.75 163.25 171.25 C 155.601562 172.507812 150.433594 169.507812 147.75 162.25 C 147.59375 159.867188 147.84375 157.53125 148.5 155.25 C 151.375 149.625 155.957031 147.125 162.25 147.75 Z M 162.25 147.75 "/>
<path style=" stroke:none;fill-rule:evenodd;fill:rgb(82.745099%,86.666667%,96.078432%);fill-opacity:1;" d="M 348.75 147.75 C 356.0625 146.863281 360.980469 149.863281 363.5 156.75 C 364.378906 163.902344 361.464844 168.820312 354.75 171.5 C 347.597656 172.378906 342.679688 169.464844 340 162.75 C 338.917969 157.496094 340.5 153.246094 344.75 150 C 346.050781 149.101562 347.382812 148.351562 348.75 147.75 Z M 348.75 147.75 "/>
<path style=" stroke:none;fill-rule:evenodd;fill:rgb(15.294118%,32.941177%,76.862746%);fill-opacity:1;" d="M 511.75 147.25 C 511.75 178.25 511.75 209.25 511.75 240.25 C 462.082031 289.75 412.417969 339.25 362.75 388.75 C 365.265625 380.699219 362.601562 375.117188 354.75 372 C 347.597656 371.121094 342.679688 374.035156 340 380.75 C 339.125 389.375 342.957031 394.375 351.5 395.75 C 353.324219 395.757812 355.074219 395.425781 356.75 394.75 C 317.917969 433.75 279.082031 472.75 240.25 511.75 C 213.082031 511.75 185.917969 511.75 158.75 511.75 C 211.917969 458.417969 265.082031 405.082031 318.25 351.75 C 335.917969 351.832031 353.585938 351.75 371.25 351.5 C 377.667969 349.75 381.75 345.667969 383.5 339.25 C 383.75 317.75 383.832031 296.25 383.75 274.75 C 426.417969 232.25 469.082031 189.75 511.75 147.25 Z M 511.75 147.25 "/>
<path style=" stroke:none;fill-rule:evenodd;fill:rgb(19.607843%,42.745098%,87.450981%);fill-opacity:1;" d="M 147.75 162.25 C 150.433594 169.507812 155.601562 172.507812 163.25 171.25 C 156.582031 178.082031 149.917969 184.917969 143.25 191.75 C 133.917969 192.75 128.75 197.917969 127.75 207.25 C 85.082031 249.75 42.417969 292.25 -0.25 334.75 C -0.25 326.417969 -0.25 318.082031 -0.25 309.75 C 49.082031 260.582031 98.417969 211.417969 147.75 162.25 Z M 147.75 162.25 "/>
<path style=" stroke:none;fill-rule:evenodd;fill:rgb(97.254902%,98.039216%,99.215686%);fill-opacity:1;" d="M 143.25 191.75 C 153.082031 191.75 162.917969 191.75 172.75 191.75 C 183.417969 191.75 194.082031 191.75 204.75 191.75 C 230.25 191.75 255.75 191.75 281.25 191.75 C 305.917969 191.75 330.582031 191.75 355.25 191.75 C 360.585938 191.667969 365.917969 191.75 371.25 192 C 372.824219 192.441406 374.324219 193.023438 375.75 193.75 C 379.785156 196.144531 382.367188 199.644531 383.5 204.25 C 383.75 208.746094 383.832031 213.246094 383.75 217.75 C 382.339844 225.578125 377.671875 230.160156 369.75 231.5 C 293.25 231.832031 216.75 231.832031 140.25 231.5 C 133.398438 229.566406 129.234375 225.152344 127.75 218.25 C 127.75 214.582031 127.75 210.917969 127.75 207.25 C 128.75 197.917969 133.917969 192.75 143.25 191.75 Z M 143.25 191.75 "/>
<path style=" stroke:none;fill-rule:evenodd;fill:rgb(19.215687%,41.960785%,86.666667%);fill-opacity:1;" d="M 127.75 207.25 C 127.75 210.917969 127.75 214.582031 127.75 218.25 C 127.75 224.417969 127.75 230.582031 127.75 236.75 C 85.082031 279.25 42.417969 321.75 -0.25 364.25 C -0.25 354.417969 -0.25 344.582031 -0.25 334.75 C 42.417969 292.25 85.082031 249.75 127.75 207.25 Z M 127.75 207.25 "/>
<path style=" stroke:none;fill-rule:evenodd;fill:rgb(91.764706%,93.725491%,98.039216%);fill-opacity:1;" d="M 383.75 217.75 C 383.75 236.75 383.75 255.75 383.75 274.75 C 383.832031 296.25 383.75 317.75 383.5 339.25 C 381.75 345.667969 377.667969 349.75 371.25 351.5 C 353.585938 351.75 335.917969 351.832031 318.25 351.75 C 314.417969 351.75 310.582031 351.75 306.75 351.75 C 276.917969 351.75 247.082031 351.75 217.25 351.75 C 209.75 351.75 202.25 351.75 194.75 351.75 C 176.582031 351.832031 158.414062 351.75 140.25 351.5 C 135.800781 350.121094 132.300781 347.539062 129.75 343.75 C 129.21875 342.242188 128.636719 340.742188 128 339.25 C 127.75 315.75 127.667969 292.25 127.75 268.75 C 127.75 258.082031 127.75 247.417969 127.75 236.75 C 127.75 230.582031 127.75 224.417969 127.75 218.25 C 129.234375 225.152344 133.398438 229.566406 140.25 231.5 C 216.75 231.832031 293.25 231.832031 369.75 231.5 C 377.671875 230.160156 382.339844 225.578125 383.75 217.75 Z M 383.75 217.75 "/>
<path style=" stroke:none;fill-rule:evenodd;fill:rgb(18.82353%,41.176471%,85.882354%);fill-opacity:1;" d="M 127.75 236.75 C 127.75 247.417969 127.75 258.082031 127.75 268.75 C 85.25 311.082031 42.75 353.417969 0.25 395.75 C 0.25 395.417969 0.0820312 395.25 -0.25 395.25 C -0.25 384.917969 -0.25 374.582031 -0.25 364.25 C 42.417969 321.75 85.082031 279.25 127.75 236.75 Z M 127.75 236.75 "/>
<path style=" stroke:none;fill-rule:evenodd;fill:rgb(14.901961%,31.764707%,75.686276%);fill-opacity:1;" d="M 511.75 240.25 C 511.75 242.582031 511.75 244.917969 511.75 247.25 C 423.417969 335.25 335.25 423.417969 247.25 511.75 C 244.917969 511.75 242.582031 511.75 240.25 511.75 C 279.082031 472.75 317.917969 433.75 356.75 394.75 C 359.25 393.25 361.25 391.25 362.75 388.75 C 412.417969 339.25 462.082031 289.75 511.75 240.25 Z M 511.75 240.25 "/>
<path style=" stroke:none;fill-rule:evenodd;fill:rgb(67.450982%,72.549021%,89.411765%);fill-opacity:1;" d="M 243.25 246.75 C 235.582031 246.75 227.917969 246.75 220.25 246.75 C 220.25 261.082031 220.25 275.417969 220.25 289.75 C 219.75 275.335938 219.585938 260.835938 219.75 246.25 C 227.671875 246.085938 235.503906 246.253906 243.25 246.75 Z M 243.25 246.75 "/>
<path style=" stroke:none;fill-rule:evenodd;fill:rgb(12.54902%,25.490198%,68.627453%);fill-opacity:1;" d="M 243.25 246.75 C 252.039062 247.625 255.957031 252.457031 255 261.25 C 253.570312 266.769531 249.988281 269.9375 244.25 270.75 C 246.222656 271.96875 247.972656 273.46875 249.5 275.25 C 252.582031 280 255.667969 284.75 258.75 289.5 C 255.25 289.832031 251.75 289.832031 248.25 289.5 C 244.707031 284.078125 241.039062 278.746094 237.25 273.5 C 234.640625 272.003906 231.804688 271.417969 228.75 271.75 C 228.75 277.75 228.75 283.75 228.75 289.75 C 225.917969 289.75 223.082031 289.75 220.25 289.75 C 220.25 275.417969 220.25 261.082031 220.25 246.75 C 227.917969 246.75 235.582031 246.75 243.25 246.75 Z M 243.25 246.75 "/>
<path style=" stroke:none;fill-rule:evenodd;fill:rgb(14.117648%,30.588236%,74.509805%);fill-opacity:1;" d="M 511.75 247.25 C 511.75 275.417969 511.75 303.582031 511.75 331.75 C 451.582031 391.582031 391.582031 451.582031 331.75 511.75 C 303.582031 511.75 275.417969 511.75 247.25 511.75 C 335.25 423.417969 423.417969 335.25 511.75 247.25 Z M 511.75 247.25 "/>
<path style=" stroke:none;fill-rule:evenodd;fill:rgb(90.588236%,92.941177%,98.039216%);fill-opacity:1;" d="M 228.75 253.75 C 233.253906 253.667969 237.753906 253.75 242.25 254 C 244.890625 254.617188 246.226562 256.285156 246.25 259 C 246.367188 261.945312 245.035156 263.777344 242.25 264.5 C 237.753906 264.75 233.253906 264.832031 228.75 264.75 C 228.75 261.082031 228.75 257.417969 228.75 253.75 Z M 228.75 253.75 "/>
<path style=" stroke:none;fill-rule:evenodd;fill:rgb(12.941177%,25.882354%,68.627453%);fill-opacity:1;" d="M 272.25 286.75 C 272.21875 286.476562 272.054688 286.3125 271.75 286.25 C 271.25 291.40625 271.085938 296.574219 271.25 301.75 C 268.582031 301.75 265.917969 301.75 263.25 301.75 C 263.25 287.417969 263.25 273.082031 263.25 258.75 C 265.75 258.75 268.25 258.75 270.75 258.75 C 270.59375 260.125 270.761719 261.457031 271.25 262.75 C 271.554688 262.6875 271.71875 262.523438 271.75 262.25 C 276.378906 257.152344 281.714844 256.402344 287.75 260 C 293.015625 264.972656 294.933594 271.054688 293.5 278.25 C 291.851562 287.074219 286.601562 291.15625 277.75 290.5 C 275.554688 289.710938 273.71875 288.460938 272.25 286.75 Z M 272.25 286.75 "/>
<path style=" stroke:none;fill-rule:evenodd;fill:rgb(50.196081%,58.039218%,82.745099%);fill-opacity:1;" d="M 270.75 258.75 C 271.082031 259.917969 271.417969 261.082031 271.75 262.25 C 271.71875 262.523438 271.554688 262.6875 271.25 262.75 C 270.761719 261.457031 270.59375 260.125 270.75 258.75 Z M 270.75 258.75 "/>
<path style=" stroke:none;fill-rule:evenodd;fill:rgb(89.803922%,91.764706%,97.254902%);fill-opacity:1;" d="M 276.25 264.25 C 280.652344 263.742188 283.570312 265.574219 285 269.75 C 285.65625 273.917969 285.15625 277.917969 283.5 281.75 C 280.167969 285.082031 276.832031 285.082031 273.5 281.75 C 270.734375 277 270.566406 272.164062 273 267.25 C 274.03125 266.132812 275.113281 265.132812 276.25 264.25 Z M 276.25 264.25 "/>
<path style=" stroke:none;fill-rule:evenodd;fill:rgb(18.039216%,40.000001%,84.313726%);fill-opacity:1;" d="M 127.75 268.75 C 127.667969 292.25 127.75 315.75 128 339.25 C 128.636719 340.742188 129.21875 342.242188 129.75 343.75 C 93.125 379.625 56.707031 415.792969 20.5 452.25 C 20.269531 452.546875 20.183594 452.878906 20.25 453.25 C 8.628906 435.894531 1.964844 416.726562 0.25 395.75 C 42.75 353.417969 85.25 311.082031 127.75 268.75 Z M 127.75 268.75 "/>
<path style=" stroke:none;fill-rule:evenodd;fill:rgb(42.352942%,51.372552%,79.607844%);fill-opacity:1;" d="M 272.25 286.75 C 271.917969 291.75 271.582031 296.75 271.25 301.75 C 271.085938 296.574219 271.25 291.40625 271.75 286.25 C 272.054688 286.3125 272.21875 286.476562 272.25 286.75 Z M 272.25 286.75 "/>
<path style=" stroke:none;fill-rule:evenodd;fill:rgb(13.725491%,29.411766%,72.941178%);fill-opacity:1;" d="M 511.75 331.75 C 511.75 337.582031 511.75 343.417969 511.75 349.25 C 457.417969 403.25 403.25 457.417969 349.25 511.75 C 343.417969 511.75 337.582031 511.75 331.75 511.75 C 391.582031 451.582031 451.582031 391.582031 511.75 331.75 Z M 511.75 331.75 "/>
<path style=" stroke:none;fill-rule:evenodd;fill:rgb(17.254902%,38.039216%,82.352942%);fill-opacity:1;" d="M 129.75 343.75 C 132.300781 347.539062 135.800781 350.121094 140.25 351.5 C 158.414062 351.75 176.582031 351.832031 194.75 351.75 C 186.765625 359.984375 178.683594 368.148438 170.5 376.25 C 170.257812 376.722656 170.175781 377.222656 170.25 377.75 C 165.558594 371.289062 159.726562 370.039062 152.75 374 C 147.648438 378.128906 146.398438 383.210938 149 389.25 C 150.347656 391.179688 151.929688 392.847656 153.75 394.25 C 153.222656 394.175781 152.722656 394.257812 152.25 394.5 C 120.316406 426.351562 88.484375 458.265625 56.75 490.25 C 43.84375 481.761719 32.761719 471.261719 23.5 458.75 C 22.289062 456.964844 21.207031 455.132812 20.25 453.25 C 20.183594 452.878906 20.269531 452.546875 20.5 452.25 C 56.707031 415.792969 93.125 379.625 129.75 343.75 Z M 129.75 343.75 "/>
<path style=" stroke:none;fill-rule:evenodd;fill:rgb(12.941177%,28.235295%,71.764708%);fill-opacity:1;" d="M 511.75 349.25 C 511.75 364.582031 511.75 379.917969 511.75 395.25 C 506.304688 440.070312 484.140625 473.820312 445.25 496.5 C 429.515625 504.84375 412.847656 509.929688 395.25 511.75 C 379.917969 511.75 364.582031 511.75 349.25 511.75 C 403.25 457.417969 457.417969 403.25 511.75 349.25 Z M 511.75 349.25 "/>
<path style=" stroke:none;fill-rule:evenodd;fill:rgb(16.862746%,36.862746%,81.176472%);fill-opacity:1;" d="M 194.75 351.75 C 202.25 351.75 209.75 351.75 217.25 351.75 C 168.417969 400.75 119.582031 449.75 70.75 498.75 C 65.734375 496.410156 61.066406 493.578125 56.75 490.25 C 88.484375 458.265625 120.316406 426.351562 152.25 394.5 C 152.722656 394.257812 153.222656 394.175781 153.75 394.25 C 162.050781 397.453125 167.96875 394.953125 171.5 386.75 C 172.070312 383.582031 171.65625 380.582031 170.25 377.75 C 170.175781 377.222656 170.257812 376.722656 170.5 376.25 C 178.683594 368.148438 186.765625 359.984375 194.75 351.75 Z M 194.75 351.75 "/>
<path style=" stroke:none;fill-rule:evenodd;fill:rgb(16.078432%,35.294119%,79.607844%);fill-opacity:1;" d="M 217.25 351.75 C 247.082031 351.75 276.917969 351.75 306.75 351.75 C 253.582031 405.082031 200.417969 458.417969 147.25 511.75 C 136.917969 511.75 126.582031 511.75 116.25 511.75 C 100.371094 510.070312 85.203125 505.734375 70.75 498.75 C 119.582031 449.75 168.417969 400.75 217.25 351.75 Z M 217.25 351.75 "/>
<path style=" stroke:none;fill-rule:evenodd;fill:rgb(15.686275%,33.725491%,78.431374%);fill-opacity:1;" d="M 306.75 351.75 C 310.582031 351.75 314.417969 351.75 318.25 351.75 C 265.082031 405.082031 211.917969 458.417969 158.75 511.75 C 154.917969 511.75 151.082031 511.75 147.25 511.75 C 200.417969 458.417969 253.582031 405.082031 306.75 351.75 Z M 306.75 351.75 "/>
<path style=" stroke:none;fill-rule:evenodd;fill:rgb(82.745099%,86.666667%,96.078432%);fill-opacity:1;" d="M 170.25 377.75 C 171.65625 380.582031 172.070312 383.582031 171.5 386.75 C 167.96875 394.953125 162.050781 397.453125 153.75 394.25 C 151.929688 392.847656 150.347656 391.179688 149 389.25 C 146.398438 383.210938 147.648438 378.128906 152.75 374 C 159.726562 370.039062 165.558594 371.289062 170.25 377.75 Z M 170.25 377.75 "/>
<path style=" stroke:none;fill-rule:evenodd;fill:rgb(82.352942%,85.882354%,94.901961%);fill-opacity:1;" d="M 362.75 388.75 C 361.25 391.25 359.25 393.25 356.75 394.75 C 355.074219 395.425781 353.324219 395.757812 351.5 395.75 C 342.957031 394.375 339.125 389.375 340 380.75 C 342.679688 374.035156 347.597656 371.121094 354.75 372 C 362.601562 375.117188 365.265625 380.699219 362.75 388.75 Z M 362.75 388.75 "/>
</g>
</svg>
