<?xml version="1.0" encoding="UTF-8"?>
<svg xmlns="http://www.w3.org/2000/svg" xmlns:xlink="http://www.w3.org/1999/xlink" width="192px" height="192px" viewBox="0 0 192 192" version="1.1">
<defs>
<filter id="alpha" filterUnits="objectBoundingBox" x="0%" y="0%" width="100%" height="100%">
  <feColorMatrix type="matrix" in="SourceGraphic" values="0 0 0 0 1 0 0 0 0 1 0 0 0 0 1 0 0 0 1 0"/>
</filter>
<mask id="mask0">
  <g filter="url(#alpha)">
<rect x="0" y="0" width="192" height="192" style="fill:rgb(0%,0%,0%);fill-opacity:0.996078;stroke:none;"/>
  </g>
</mask>
<clipPath id="clip1">
  <rect x="0" y="0" width="192" height="192"/>
</clipPath>
<g id="surface5" clip-path="url(#clip1)">
<path style=" stroke:none;fill-rule:evenodd;fill:rgb(21.960784%,48.235294%,93.333334%);fill-opacity:1;" d="M 43.59375 -0.09375 C 44.34375 -0.09375 45.09375 -0.09375 45.84375 -0.09375 C 30.648438 15.289062 15.335938 30.539062 -0.09375 45.65625 C -0.09375 44.96875 -0.09375 44.28125 -0.09375 43.59375 C 1.949219 26.785156 10.261719 14.128906 24.84375 5.625 C 30.746094 2.496094 36.996094 0.589844 43.59375 -0.09375 Z M 43.59375 -0.09375 "/>
</g>
</defs>
<g id="surface1">
<use xlink:href="#surface5" mask="url(#mask0)"/>
<path style=" stroke:none;fill-rule:evenodd;fill:rgb(21.176471%,47.058824%,92.156863%);fill-opacity:1;" d="M 45.84375 -0.09375 C 52.78125 -0.09375 59.71875 -0.09375 66.65625 -0.09375 C 44.46875 22.21875 22.21875 44.46875 -0.09375 66.65625 C -0.09375 59.65625 -0.09375 52.65625 -0.09375 45.65625 C 15.335938 30.539062 30.648438 15.289062 45.84375 -0.09375 Z M 45.84375 -0.09375 "/>
<path style=" stroke:none;fill-rule:evenodd;fill:rgb(20.784314%,45.882353%,90.980393%);fill-opacity:1;" d="M 66.65625 -0.09375 C 70.53125 -0.09375 74.40625 -0.09375 78.28125 -0.09375 C 52.21875 26.09375 26.09375 52.21875 -0.09375 78.28125 C -0.09375 74.40625 -0.09375 70.53125 -0.09375 66.65625 C 22.21875 44.46875 44.46875 22.21875 66.65625 -0.09375 Z M 66.65625 -0.09375 "/>
<path style=" stroke:none;fill-rule:evenodd;fill:rgb(20.392157%,44.705883%,89.803922%);fill-opacity:1;" d="M 78.28125 -0.09375 C 86.09375 -0.09375 93.90625 -0.09375 101.71875 -0.09375 C 67.84375 33.90625 33.90625 67.84375 -0.09375 101.71875 C -0.09375 93.90625 -0.09375 86.09375 -0.09375 78.28125 C 26.09375 52.21875 52.21875 26.09375 78.28125 -0.09375 Z M 78.28125 -0.09375 "/>
<path style=" stroke:none;fill-rule:evenodd;fill:rgb(19.607843%,43.529412%,88.235295%);fill-opacity:1;" d="M 101.71875 -0.09375 C 106.53125 -0.09375 111.34375 -0.09375 116.15625 -0.09375 C 97.71875 18.40625 79.28125 36.90625 60.84375 55.40625 C 58.484375 55.171875 56.765625 56.109375 55.6875 58.21875 C 55.441406 59.074219 55.347656 59.949219 55.40625 60.84375 C 36.90625 79.28125 18.40625 97.71875 -0.09375 116.15625 C -0.09375 111.34375 -0.09375 106.53125 -0.09375 101.71875 C 33.90625 67.84375 67.84375 33.90625 101.71875 -0.09375 Z M 101.71875 -0.09375 "/>
<path style=" stroke:none;fill-rule:evenodd;fill:rgb(19.607843%,42.745098%,87.450981%);fill-opacity:1;" d="M 116.15625 -0.09375 C 119.28125 -0.09375 122.40625 -0.09375 125.53125 -0.09375 C 105.15625 20.40625 84.71875 40.84375 64.21875 61.21875 C 64.691406 58.351562 63.566406 56.414062 60.84375 55.40625 C 79.28125 36.90625 97.71875 18.40625 116.15625 -0.09375 Z M 116.15625 -0.09375 "/>
<path style=" stroke:none;fill-rule:evenodd;fill:rgb(19.215687%,41.960785%,86.666667%);fill-opacity:1;" d="M 125.53125 -0.09375 C 129.21875 -0.09375 132.90625 -0.09375 136.59375 -0.09375 C 112.65625 23.90625 88.71875 47.90625 64.78125 71.90625 C 61.09375 71.90625 57.40625 71.90625 53.71875 71.90625 C 56.21875 69.34375 58.71875 66.78125 61.21875 64.21875 C 62.65625 63.65625 63.65625 62.65625 64.21875 61.21875 C 84.71875 40.84375 105.15625 20.40625 125.53125 -0.09375 Z M 125.53125 -0.09375 "/>
<path style=" stroke:none;fill-rule:evenodd;fill:rgb(18.82353%,41.176471%,85.882354%);fill-opacity:1;" d="M 136.59375 -0.09375 C 140.46875 -0.09375 144.34375 -0.09375 148.21875 -0.09375 C 148.21875 0.03125 148.28125 0.09375 148.40625 0.09375 C 124.53125 24.03125 100.65625 47.96875 76.78125 71.90625 C 72.78125 71.90625 68.78125 71.90625 64.78125 71.90625 C 88.71875 47.90625 112.65625 23.90625 136.59375 -0.09375 Z M 136.59375 -0.09375 "/>
<path style=" stroke:none;fill-rule:evenodd;fill:rgb(18.039216%,40.000001%,84.313726%);fill-opacity:1;" d="M 148.40625 0.09375 C 156.171875 0.746094 163.296875 3.183594 169.78125 7.40625 C 148.34375 28.90625 126.90625 50.40625 105.46875 71.90625 C 95.90625 71.90625 86.34375 71.90625 76.78125 71.90625 C 100.65625 47.96875 124.53125 24.03125 148.40625 0.09375 Z M 148.40625 0.09375 "/>
<path style=" stroke:none;fill-rule:evenodd;fill:rgb(17.254902%,38.039216%,82.352942%);fill-opacity:1;" d="M 169.78125 7.40625 C 174.929688 10.710938 179.335938 14.835938 183 19.78125 C 183.332031 20.261719 183.613281 20.761719 183.84375 21.28125 C 166.90625 38.09375 150.03125 54.96875 133.21875 71.90625 C 123.96875 71.90625 114.71875 71.90625 105.46875 71.90625 C 126.90625 50.40625 148.34375 28.90625 169.78125 7.40625 Z M 169.78125 7.40625 "/>
<path style=" stroke:none;fill-rule:evenodd;fill:rgb(16.862746%,36.862746%,81.176472%);fill-opacity:1;" d="M 183.84375 21.28125 C 185.203125 23.0625 186.328125 25 187.21875 27.09375 C 187.039062 27.007812 186.882812 26.882812 186.75 26.71875 C 171.429688 42.007812 156.148438 57.320312 140.90625 72.65625 C 140.371094 72.382812 139.808594 72.164062 139.21875 72 C 137.21875 71.90625 135.21875 71.875 133.21875 71.90625 C 150.03125 54.96875 166.90625 38.09375 183.84375 21.28125 Z M 183.84375 21.28125 "/>
<path style=" stroke:none;fill-rule:evenodd;fill:rgb(16.078432%,35.294119%,79.607844%);fill-opacity:1;" d="M 187.21875 27.09375 C 189.769531 32.3125 191.335938 37.8125 191.90625 43.59375 C 191.90625 47.46875 191.90625 51.34375 191.90625 55.21875 C 175.90625 71.15625 159.90625 87.09375 143.90625 103.03125 C 143.90625 95.90625 143.90625 88.78125 143.90625 81.65625 C 143.9375 79.96875 143.90625 78.28125 143.8125 76.59375 C 143.386719 74.867188 142.417969 73.554688 140.90625 72.65625 C 156.148438 57.320312 171.429688 42.007812 186.75 26.71875 C 186.882812 26.882812 187.039062 27.007812 187.21875 27.09375 Z M 187.21875 27.09375 "/>
<path style=" stroke:none;fill-rule:evenodd;fill:rgb(83.137256%,87.843138%,97.254902%);fill-opacity:1;" d="M 60.84375 55.40625 C 63.566406 56.414062 64.691406 58.351562 64.21875 61.21875 C 63.65625 62.65625 62.65625 63.65625 61.21875 64.21875 C 58.351562 64.691406 56.414062 63.566406 55.40625 60.84375 C 55.347656 59.949219 55.441406 59.074219 55.6875 58.21875 C 56.765625 56.109375 58.484375 55.171875 60.84375 55.40625 Z M 60.84375 55.40625 "/>
<path style=" stroke:none;fill-rule:evenodd;fill:rgb(82.745099%,86.666667%,96.078432%);fill-opacity:1;" d="M 130.78125 55.40625 C 133.523438 55.074219 135.367188 56.199219 136.3125 58.78125 C 136.644531 61.464844 135.550781 63.308594 133.03125 64.3125 C 130.347656 64.644531 128.503906 63.550781 127.5 61.03125 C 127.09375 59.0625 127.6875 57.46875 129.28125 56.25 C 129.769531 55.914062 130.269531 55.632812 130.78125 55.40625 Z M 130.78125 55.40625 "/>
<path style=" stroke:none;fill-rule:evenodd;fill:rgb(15.294118%,32.941177%,76.862746%);fill-opacity:1;" d="M 191.90625 55.21875 C 191.90625 66.84375 191.90625 78.46875 191.90625 90.09375 C 173.28125 108.65625 154.65625 127.21875 136.03125 145.78125 C 136.976562 142.761719 135.976562 140.667969 133.03125 139.5 C 130.347656 139.167969 128.503906 140.261719 127.5 142.78125 C 127.171875 146.015625 128.609375 147.890625 131.8125 148.40625 C 132.496094 148.410156 133.152344 148.285156 133.78125 148.03125 C 119.21875 162.65625 104.65625 177.28125 90.09375 191.90625 C 79.90625 191.90625 69.71875 191.90625 59.53125 191.90625 C 79.46875 171.90625 99.40625 151.90625 119.34375 131.90625 C 125.96875 131.9375 132.59375 131.90625 139.21875 131.8125 C 141.625 131.15625 143.15625 129.625 143.8125 127.21875 C 143.90625 119.15625 143.9375 111.09375 143.90625 103.03125 C 159.90625 87.09375 175.90625 71.15625 191.90625 55.21875 Z M 191.90625 55.21875 "/>
<path style=" stroke:none;fill-rule:evenodd;fill:rgb(19.607843%,42.745098%,87.450981%);fill-opacity:1;" d="M 55.40625 60.84375 C 56.414062 63.566406 58.351562 64.691406 61.21875 64.21875 C 58.71875 66.78125 56.21875 69.34375 53.71875 71.90625 C 50.21875 72.28125 48.28125 74.21875 47.90625 77.71875 C 31.90625 93.65625 15.90625 109.59375 -0.09375 125.53125 C -0.09375 122.40625 -0.09375 119.28125 -0.09375 116.15625 C 18.40625 97.71875 36.90625 79.28125 55.40625 60.84375 Z M 55.40625 60.84375 "/>
<path style=" stroke:none;fill-rule:evenodd;fill:rgb(97.254902%,98.039216%,99.215686%);fill-opacity:1;" d="M 53.71875 71.90625 C 57.40625 71.90625 61.09375 71.90625 64.78125 71.90625 C 68.78125 71.90625 72.78125 71.90625 76.78125 71.90625 C 86.34375 71.90625 95.90625 71.90625 105.46875 71.90625 C 114.71875 71.90625 123.96875 71.90625 133.21875 71.90625 C 135.21875 71.875 137.21875 71.90625 139.21875 72 C 139.808594 72.164062 140.371094 72.382812 140.90625 72.65625 C 142.417969 73.554688 143.386719 74.867188 143.8125 76.59375 C 143.90625 78.28125 143.9375 79.96875 143.90625 81.65625 C 143.378906 84.589844 141.628906 86.308594 138.65625 86.8125 C 109.96875 86.9375 81.28125 86.9375 52.59375 86.8125 C 50.023438 86.085938 48.460938 84.429688 47.90625 81.84375 C 47.90625 80.46875 47.90625 79.09375 47.90625 77.71875 C 48.28125 74.21875 50.21875 72.28125 53.71875 71.90625 Z M 53.71875 71.90625 "/>
<path style=" stroke:none;fill-rule:evenodd;fill:rgb(19.215687%,41.960785%,86.666667%);fill-opacity:1;" d="M 47.90625 77.71875 C 47.90625 79.09375 47.90625 80.46875 47.90625 81.84375 C 47.90625 84.15625 47.90625 86.46875 47.90625 88.78125 C 31.90625 104.71875 15.90625 120.65625 -0.09375 136.59375 C -0.09375 132.90625 -0.09375 129.21875 -0.09375 125.53125 C 15.90625 109.59375 31.90625 93.65625 47.90625 77.71875 Z M 47.90625 77.71875 "/>
<path style=" stroke:none;fill-rule:evenodd;fill:rgb(91.764706%,93.725491%,98.039216%);fill-opacity:1;" d="M 143.90625 81.65625 C 143.90625 88.78125 143.90625 95.90625 143.90625 103.03125 C 143.9375 111.09375 143.90625 119.15625 143.8125 127.21875 C 143.15625 129.625 141.625 131.15625 139.21875 131.8125 C 132.59375 131.90625 125.96875 131.9375 119.34375 131.90625 C 117.90625 131.90625 116.46875 131.90625 115.03125 131.90625 C 103.84375 131.90625 92.65625 131.90625 81.46875 131.90625 C 78.65625 131.90625 75.84375 131.90625 73.03125 131.90625 C 66.21875 131.9375 59.40625 131.90625 52.59375 131.8125 C 50.925781 131.296875 49.613281 130.328125 48.65625 128.90625 C 48.457031 128.339844 48.238281 127.777344 48 127.21875 C 47.90625 118.40625 47.875 109.59375 47.90625 100.78125 C 47.90625 96.78125 47.90625 92.78125 47.90625 88.78125 C 47.90625 86.46875 47.90625 84.15625 47.90625 81.84375 C 48.460938 84.429688 50.023438 86.085938 52.59375 86.8125 C 81.28125 86.9375 109.96875 86.9375 138.65625 86.8125 C 141.628906 86.308594 143.378906 84.589844 143.90625 81.65625 Z M 143.90625 81.65625 "/>
<path style=" stroke:none;fill-rule:evenodd;fill:rgb(18.82353%,41.176471%,85.882354%);fill-opacity:1;" d="M 47.90625 88.78125 C 47.90625 92.78125 47.90625 96.78125 47.90625 100.78125 C 31.96875 116.65625 16.03125 132.53125 0.09375 148.40625 C 0.09375 148.28125 0.03125 148.21875 -0.09375 148.21875 C -0.09375 144.34375 -0.09375 140.46875 -0.09375 136.59375 C 15.90625 120.65625 31.90625 104.71875 47.90625 88.78125 Z M 47.90625 88.78125 "/>
<path style=" stroke:none;fill-rule:evenodd;fill:rgb(14.901961%,31.764707%,75.686276%);fill-opacity:1;" d="M 191.90625 90.09375 C 191.90625 90.96875 191.90625 91.84375 191.90625 92.71875 C 158.78125 125.71875 125.71875 158.78125 92.71875 191.90625 C 91.84375 191.90625 90.96875 191.90625 90.09375 191.90625 C 104.65625 177.28125 119.21875 162.65625 133.78125 148.03125 C 134.71875 147.46875 135.46875 146.71875 136.03125 145.78125 C 154.65625 127.21875 173.28125 108.65625 191.90625 90.09375 Z M 191.90625 90.09375 "/>
<path style=" stroke:none;fill-rule:evenodd;fill:rgb(67.450982%,72.549021%,89.411765%);fill-opacity:1;" d="M 91.21875 92.53125 C 88.34375 92.53125 85.46875 92.53125 82.59375 92.53125 C 82.59375 97.90625 82.59375 103.28125 82.59375 108.65625 C 82.40625 103.25 82.34375 97.8125 82.40625 92.34375 C 85.375 92.28125 88.3125 92.34375 91.21875 92.53125 Z M 91.21875 92.53125 "/>
<path style=" stroke:none;fill-rule:evenodd;fill:rgb(12.54902%,25.490198%,68.627453%);fill-opacity:1;" d="M 91.21875 92.53125 C 94.515625 92.859375 95.984375 94.671875 95.625 97.96875 C 95.089844 100.039062 93.746094 101.226562 91.59375 101.53125 C 92.332031 101.988281 92.988281 102.550781 93.5625 103.21875 C 94.71875 105 95.875 106.78125 97.03125 108.5625 C 95.71875 108.6875 94.40625 108.6875 93.09375 108.5625 C 91.765625 106.53125 90.390625 104.53125 88.96875 102.5625 C 87.988281 102 86.925781 101.78125 85.78125 101.90625 C 85.78125 104.15625 85.78125 106.40625 85.78125 108.65625 C 84.71875 108.65625 83.65625 108.65625 82.59375 108.65625 C 82.59375 103.28125 82.59375 97.90625 82.59375 92.53125 C 85.46875 92.53125 88.34375 92.53125 91.21875 92.53125 Z M 91.21875 92.53125 "/>
<path style=" stroke:none;fill-rule:evenodd;fill:rgb(14.117648%,30.588236%,74.509805%);fill-opacity:1;" d="M 191.90625 92.71875 C 191.90625 103.28125 191.90625 113.84375 191.90625 124.40625 C 169.34375 146.84375 146.84375 169.34375 124.40625 191.90625 C 113.84375 191.90625 103.28125 191.90625 92.71875 191.90625 C 125.71875 158.78125 158.78125 125.71875 191.90625 92.71875 Z M 191.90625 92.71875 "/>
<path style=" stroke:none;fill-rule:evenodd;fill:rgb(90.588236%,92.941177%,98.039216%);fill-opacity:1;" d="M 85.78125 95.15625 C 87.46875 95.125 89.15625 95.15625 90.84375 95.25 C 91.835938 95.480469 92.335938 96.105469 92.34375 97.125 C 92.386719 98.230469 91.886719 98.917969 90.84375 99.1875 C 89.15625 99.28125 87.46875 99.3125 85.78125 99.28125 C 85.78125 97.90625 85.78125 96.53125 85.78125 95.15625 Z M 85.78125 95.15625 "/>
<path style=" stroke:none;fill-rule:evenodd;fill:rgb(12.941177%,25.882354%,68.627453%);fill-opacity:1;" d="M 102.09375 107.53125 C 102.082031 107.429688 102.019531 107.367188 101.90625 107.34375 C 101.71875 109.277344 101.65625 111.214844 101.71875 113.15625 C 100.71875 113.15625 99.71875 113.15625 98.71875 113.15625 C 98.71875 107.78125 98.71875 102.40625 98.71875 97.03125 C 99.65625 97.03125 100.59375 97.03125 101.53125 97.03125 C 101.472656 97.546875 101.535156 98.046875 101.71875 98.53125 C 101.832031 98.507812 101.894531 98.445312 101.90625 98.34375 C 103.640625 96.433594 105.640625 96.152344 107.90625 97.5 C 109.882812 99.363281 110.601562 101.644531 110.0625 104.34375 C 109.445312 107.652344 107.476562 109.183594 104.15625 108.9375 C 103.332031 108.640625 102.644531 108.171875 102.09375 107.53125 Z M 102.09375 107.53125 "/>
<path style=" stroke:none;fill-rule:evenodd;fill:rgb(50.196081%,58.039218%,82.745099%);fill-opacity:1;" d="M 101.53125 97.03125 C 101.65625 97.46875 101.78125 97.90625 101.90625 98.34375 C 101.894531 98.445312 101.832031 98.507812 101.71875 98.53125 C 101.535156 98.046875 101.472656 97.546875 101.53125 97.03125 Z M 101.53125 97.03125 "/>
<path style=" stroke:none;fill-rule:evenodd;fill:rgb(89.803922%,91.764706%,97.254902%);fill-opacity:1;" d="M 103.59375 99.09375 C 105.246094 98.902344 106.339844 99.589844 106.875 101.15625 C 107.121094 102.71875 106.933594 104.21875 106.3125 105.65625 C 105.0625 106.90625 103.8125 106.90625 102.5625 105.65625 C 101.527344 103.875 101.460938 102.0625 102.375 100.21875 C 102.761719 99.800781 103.167969 99.425781 103.59375 99.09375 Z M 103.59375 99.09375 "/>
<path style=" stroke:none;fill-rule:evenodd;fill:rgb(18.039216%,40.000001%,84.313726%);fill-opacity:1;" d="M 47.90625 100.78125 C 47.875 109.59375 47.90625 118.40625 48 127.21875 C 48.238281 127.777344 48.457031 128.339844 48.65625 128.90625 C 34.921875 142.359375 21.265625 155.921875 7.6875 169.59375 C 7.601562 169.707031 7.570312 169.832031 7.59375 169.96875 C 3.238281 163.460938 0.738281 156.273438 0.09375 148.40625 C 16.03125 132.53125 31.96875 116.65625 47.90625 100.78125 Z M 47.90625 100.78125 "/>
<path style=" stroke:none;fill-rule:evenodd;fill:rgb(42.352942%,51.372552%,79.607844%);fill-opacity:1;" d="M 102.09375 107.53125 C 101.96875 109.40625 101.84375 111.28125 101.71875 113.15625 C 101.65625 111.214844 101.71875 109.277344 101.90625 107.34375 C 102.019531 107.367188 102.082031 107.429688 102.09375 107.53125 Z M 102.09375 107.53125 "/>
<path style=" stroke:none;fill-rule:evenodd;fill:rgb(13.725491%,29.411766%,72.941178%);fill-opacity:1;" d="M 191.90625 124.40625 C 191.90625 126.59375 191.90625 128.78125 191.90625 130.96875 C 171.53125 151.21875 151.21875 171.53125 130.96875 191.90625 C 128.78125 191.90625 126.59375 191.90625 124.40625 191.90625 C 146.84375 169.34375 169.34375 146.84375 191.90625 124.40625 Z M 191.90625 124.40625 "/>
<path style=" stroke:none;fill-rule:evenodd;fill:rgb(17.254902%,38.039216%,82.352942%);fill-opacity:1;" d="M 48.65625 128.90625 C 49.613281 130.328125 50.925781 131.296875 52.59375 131.8125 C 59.40625 131.90625 66.21875 131.9375 73.03125 131.90625 C 70.039062 134.992188 67.007812 138.054688 63.9375 141.09375 C 63.847656 141.273438 63.816406 141.460938 63.84375 141.65625 C 62.085938 139.234375 59.898438 138.765625 57.28125 140.25 C 55.367188 141.796875 54.898438 143.703125 55.875 145.96875 C 56.378906 146.691406 56.972656 147.316406 57.65625 147.84375 C 57.460938 147.816406 57.273438 147.847656 57.09375 147.9375 C 45.117188 159.882812 33.179688 171.851562 21.28125 183.84375 C 16.441406 180.660156 12.285156 176.722656 8.8125 172.03125 C 8.359375 171.363281 7.953125 170.675781 7.59375 169.96875 C 7.570312 169.832031 7.601562 169.707031 7.6875 169.59375 C 21.265625 155.921875 34.921875 142.359375 48.65625 128.90625 Z M 48.65625 128.90625 "/>
<path style=" stroke:none;fill-rule:evenodd;fill:rgb(12.941177%,28.235295%,71.764708%);fill-opacity:1;" d="M 191.90625 130.96875 C 191.90625 136.71875 191.90625 142.46875 191.90625 148.21875 C 189.863281 165.027344 181.550781 177.683594 166.96875 186.1875 C 161.066406 189.316406 154.816406 191.222656 148.21875 191.90625 C 142.46875 191.90625 136.71875 191.90625 130.96875 191.90625 C 151.21875 171.53125 171.53125 151.21875 191.90625 130.96875 Z M 191.90625 130.96875 "/>
<path style=" stroke:none;fill-rule:evenodd;fill:rgb(16.862746%,36.862746%,81.176472%);fill-opacity:1;" d="M 73.03125 131.90625 C 75.84375 131.90625 78.65625 131.90625 81.46875 131.90625 C 63.15625 150.28125 44.84375 168.65625 26.53125 187.03125 C 24.648438 186.15625 22.898438 185.09375 21.28125 183.84375 C 33.179688 171.851562 45.117188 159.882812 57.09375 147.9375 C 57.273438 147.847656 57.460938 147.816406 57.65625 147.84375 C 60.769531 149.046875 62.988281 148.109375 64.3125 145.03125 C 64.527344 143.84375 64.371094 142.71875 63.84375 141.65625 C 63.816406 141.460938 63.847656 141.273438 63.9375 141.09375 C 67.007812 138.054688 70.039062 134.992188 73.03125 131.90625 Z M 73.03125 131.90625 "/>
<path style=" stroke:none;fill-rule:evenodd;fill:rgb(16.078432%,35.294119%,79.607844%);fill-opacity:1;" d="M 81.46875 131.90625 C 92.65625 131.90625 103.84375 131.90625 115.03125 131.90625 C 95.09375 151.90625 75.15625 171.90625 55.21875 191.90625 C 51.34375 191.90625 47.46875 191.90625 43.59375 191.90625 C 37.640625 191.277344 31.953125 189.652344 26.53125 187.03125 C 44.84375 168.65625 63.15625 150.28125 81.46875 131.90625 Z M 81.46875 131.90625 "/>
<path style=" stroke:none;fill-rule:evenodd;fill:rgb(15.686275%,33.725491%,78.431374%);fill-opacity:1;" d="M 115.03125 131.90625 C 116.46875 131.90625 117.90625 131.90625 119.34375 131.90625 C 99.40625 151.90625 79.46875 171.90625 59.53125 191.90625 C 58.09375 191.90625 56.65625 191.90625 55.21875 191.90625 C 75.15625 171.90625 95.09375 151.90625 115.03125 131.90625 Z M 115.03125 131.90625 "/>
<path style=" stroke:none;fill-rule:evenodd;fill:rgb(82.745099%,86.666667%,96.078432%);fill-opacity:1;" d="M 63.84375 141.65625 C 64.371094 142.71875 64.527344 143.84375 64.3125 145.03125 C 62.988281 148.109375 60.769531 149.046875 57.65625 147.84375 C 56.972656 147.316406 56.378906 146.691406 55.875 145.96875 C 54.898438 143.703125 55.367188 141.796875 57.28125 140.25 C 59.898438 138.765625 62.085938 139.234375 63.84375 141.65625 Z M 63.84375 141.65625 "/>
<path style=" stroke:none;fill-rule:evenodd;fill:rgb(82.352942%,85.882354%,94.901961%);fill-opacity:1;" d="M 136.03125 145.78125 C 135.46875 146.71875 134.71875 147.46875 133.78125 148.03125 C 133.152344 148.285156 132.496094 148.410156 131.8125 148.40625 C 128.609375 147.890625 127.171875 146.015625 127.5 142.78125 C 128.503906 140.261719 130.347656 139.167969 133.03125 139.5 C 135.976562 140.667969 136.976562 142.761719 136.03125 145.78125 Z M 136.03125 145.78125 "/>
</g>
</svg>
